<?xml version="1.0" standalone="no"?>
<!DOCTYPE svg PUBLIC "-//W3C//DTD SVG 1.1//EN" "http://www.w3.org/Graphics/SVG/1.1/DTD/svg11.dtd">
<svg width="1019px" height="2670px" version="1.1" xmlns="http://www.w3.org/2000/svg">

<!-- This file is a systemd-analyze SVG file. It is best rendered in a   -->
<!-- browser such as Chrome, Chromium or Firefox. Other applications     -->
<!-- that render these files properly but much slower are ImageMagick,   -->
<!-- gimp, inkscape, etc. To display the files on your system, just      -->
<!-- point your browser to this file.                                    -->

<!-- This plot was generated by systemd-analyze version 216              -->

<defs>
  <style type="text/css">
    <![CDATA[
      rect       { stroke-width: 1; stroke-opacity: 0; }
      rect.background   { fill: rgb(255,255,255); }
      rect.activating   { fill: rgb(255,0,0); fill-opacity: 0.7; }
      rect.active       { fill: rgb(200,150,150); fill-opacity: 0.7; }
      rect.deactivating { fill: rgb(150,100,100); fill-opacity: 0.7; }
      rect.kernel       { fill: rgb(150,150,150); fill-opacity: 0.7; }
      rect.initrd       { fill: rgb(150,150,150); fill-opacity: 0.7; }
      rect.firmware     { fill: rgb(150,150,150); fill-opacity: 0.7; }
      rect.loader       { fill: rgb(150,150,150); fill-opacity: 0.7; }
      rect.userspace    { fill: rgb(150,150,150); fill-opacity: 0.7; }
      rect.security     { fill: rgb(144,238,144); fill-opacity: 0.7; }
      rect.generators   { fill: rgb(102,204,255); fill-opacity: 0.7; }
      rect.unitsload    { fill: rgb( 82,184,255); fill-opacity: 0.7; }
      rect.box   { fill: rgb(240,240,240); stroke: rgb(192,192,192); }
      line       { stroke: rgb(64,64,64); stroke-width: 1; }
//    line.sec1  { }
      line.sec5  { stroke-width: 2; }
      line.sec01 { stroke: rgb(224,224,224); stroke-width: 1; }
      text       { font-family: Verdana, Helvetica; font-size: 14px; }
      text.left  { font-family: Verdana, Helvetica; font-size: 14px; text-anchor: start; }
      text.right { font-family: Verdana, Helvetica; font-size: 14px; text-anchor: end; }
      text.sec   { font-size: 10px; }
    ]]>
   </style>
</defs>

<rect class="background" width="100%" height="100%" />
<text x="20" y="50">Startup finished in 1.050s (kernel) + 528ms (userspace) = 1.578s</text><text x="20" y="30">Linux  (  ) x86-64 </text><g transform="translate(20.000,100)">
<rect class="box" x="0" y="0" width="157.858" height="2420.000" />
  <line class="sec5" x1="0.000" y1="0" x2="0.000" y2="2420.000" />
  <text class="sec" x="0.000" y="-5.000" >0.0s</text>
  <line class="sec01" x1="10.000" y1="0" x2="10.000" y2="2420.000" />
  <line class="sec01" x1="20.000" y1="0" x2="20.000" y2="2420.000" />
  <line class="sec01" x1="30.000" y1="0" x2="30.000" y2="2420.000" />
  <line class="sec01" x1="40.000" y1="0" x2="40.000" y2="2420.000" />
  <line class="sec01" x1="50.000" y1="0" x2="50.000" y2="2420.000" />
  <line class="sec01" x1="60.000" y1="0" x2="60.000" y2="2420.000" />
  <line class="sec01" x1="70.000" y1="0" x2="70.000" y2="2420.000" />
  <line class="sec01" x1="80.000" y1="0" x2="80.000" y2="2420.000" />
  <line class="sec01" x1="90.000" y1="0" x2="90.000" y2="2420.000" />
  <line class="sec1" x1="100.000" y1="0" x2="100.000" y2="2420.000" />
  <text class="sec" x="100.000" y="-5.000" >1.0s</text>
  <line class="sec01" x1="110.000" y1="0" x2="110.000" y2="2420.000" />
  <line class="sec01" x1="120.000" y1="0" x2="120.000" y2="2420.000" />
  <line class="sec01" x1="130.000" y1="0" x2="130.000" y2="2420.000" />
  <line class="sec01" x1="140.000" y1="0" x2="140.000" y2="2420.000" />
  <line class="sec01" x1="150.000" y1="0" x2="150.000" y2="2420.000" />
  <rect class="kernel" x="0.000" y="0.000" width="105.006" height="19.000" />
  <text class="left" x="5.000" y="14.000">kernel</text>
  <rect class="active" x="105.006" y="20.000" width="52.852" height="19.000" />
  <rect class="security" x="105.466" y="20.000" width="0.049" height="19.000" />
  <rect class="generators" x="109.486" y="20.000" width="2.186" height="19.000" />
  <rect class="unitsload" x="111.793" y="20.000" width="1.842" height="19.000" />
  <text class="left" x="110.006" y="34.000">systemd</text>
  <rect class="activating" x="113.637" y="40.000" width="0.000" height="19.000" />
  <rect class="active" x="113.637" y="40.000" width="44.221" height="19.000" />
  <rect class="deactivating" x="157.858" y="40.000" width="0.000" height="19.000" />
  <text class="left" x="118.637" y="54.000">-.mount</text>
  <rect class="activating" x="113.703" y="60.000" width="0.000" height="19.000" />
  <rect class="active" x="113.703" y="60.000" width="44.155" height="19.000" />
  <rect class="deactivating" x="157.858" y="60.000" width="0.000" height="19.000" />
  <text class="left" x="118.703" y="74.000">systemd-ask-password-wall.path</text>
  <rect class="activating" x="113.718" y="80.000" width="0.000" height="19.000" />
  <rect class="active" x="113.718" y="80.000" width="44.140" height="19.000" />
  <rect class="deactivating" x="157.858" y="80.000" width="0.000" height="19.000" />
  <text class="left" x="118.718" y="94.000">remote-fs.target</text>
  <rect class="activating" x="113.778" y="100.000" width="0.000" height="19.000" />
  <rect class="active" x="113.778" y="100.000" width="44.080" height="19.000" />
  <rect class="deactivating" x="157.858" y="100.000" width="0.000" height="19.000" />
  <text class="left" x="118.778" y="114.000">proc-sys-fs-binfmt_misc.automount</text>
  <rect class="activating" x="113.836" y="120.000" width="0.000" height="19.000" />
  <rect class="active" x="113.836" y="120.000" width="44.022" height="19.000" />
  <rect class="deactivating" x="157.858" y="120.000" width="0.000" height="19.000" />
  <text class="left" x="118.836" y="134.000">systemd-ask-password-console.path</text>
  <rect class="activating" x="113.851" y="140.000" width="0.000" height="19.000" />
  <rect class="active" x="113.851" y="140.000" width="44.007" height="19.000" />
  <rect class="deactivating" x="157.858" y="140.000" width="0.000" height="19.000" />
  <text class="left" x="118.851" y="154.000">paths.target</text>
  <rect class="activating" x="114.184" y="160.000" width="0.000" height="19.000" />
  <rect class="active" x="114.184" y="160.000" width="43.674" height="19.000" />
  <rect class="deactivating" x="157.858" y="160.000" width="0.000" height="19.000" />
  <text class="left" x="119.184" y="174.000">-.slice</text>
  <rect class="activating" x="114.244" y="180.000" width="0.000" height="19.000" />
  <rect class="active" x="114.244" y="180.000" width="43.614" height="19.000" />
  <rect class="deactivating" x="157.858" y="180.000" width="0.000" height="19.000" />
  <text class="left" x="119.244" y="194.000">user.slice</text>
  <rect class="activating" x="114.300" y="200.000" width="0.000" height="19.000" />
  <rect class="active" x="114.300" y="200.000" width="43.558" height="19.000" />
  <rect class="deactivating" x="157.858" y="200.000" width="0.000" height="19.000" />
  <text class="left" x="119.300" y="214.000">systemd-shutdownd.socket</text>
  <rect class="activating" x="114.358" y="220.000" width="0.000" height="19.000" />
  <rect class="active" x="114.358" y="220.000" width="43.500" height="19.000" />
  <rect class="deactivating" x="157.858" y="220.000" width="0.000" height="19.000" />
  <text class="left" x="119.358" y="234.000">systemd-initctl.socket</text>
  <rect class="activating" x="114.414" y="240.000" width="0.000" height="19.000" />
  <rect class="active" x="114.414" y="240.000" width="43.444" height="19.000" />
  <rect class="deactivating" x="157.858" y="240.000" width="0.000" height="19.000" />
  <text class="left" x="119.414" y="254.000">systemd-journald-dev-log.socket</text>
  <rect class="activating" x="114.470" y="260.000" width="0.000" height="19.000" />
  <rect class="active" x="114.470" y="260.000" width="43.388" height="19.000" />
  <rect class="deactivating" x="157.858" y="260.000" width="0.000" height="19.000" />
  <text class="left" x="119.470" y="274.000">systemd-udevd-control.socket</text>
  <rect class="activating" x="114.525" y="280.000" width="0.000" height="19.000" />
  <rect class="active" x="114.525" y="280.000" width="43.333" height="19.000" />
  <rect class="deactivating" x="157.858" y="280.000" width="0.000" height="19.000" />
  <text class="left" x="119.525" y="294.000">systemd-udevd-kernel.socket</text>
  <rect class="activating" x="114.581" y="300.000" width="0.000" height="19.000" />
  <rect class="active" x="114.581" y="300.000" width="43.278" height="19.000" />
  <rect class="deactivating" x="157.858" y="300.000" width="0.000" height="19.000" />
  <text class="left" x="119.581" y="314.000">systemd-journald.socket</text>
  <rect class="activating" x="114.640" y="320.000" width="0.000" height="19.000" />
  <rect class="active" x="114.640" y="320.000" width="43.218" height="19.000" />
  <rect class="deactivating" x="157.858" y="320.000" width="0.000" height="19.000" />
  <text class="left" x="119.640" y="334.000">system.slice</text>
  <rect class="activating" x="114.738" y="340.000" width="3.002" height="19.000" />
  <rect class="active" x="117.740" y="340.000" width="40.118" height="19.000" />
  <rect class="deactivating" x="157.858" y="340.000" width="0.000" height="19.000" />
  <text class="left" x="119.738" y="354.000">systemd-fsck-root.service (30ms)</text>
  <rect class="activating" x="114.757" y="360.000" width="0.000" height="19.000" />
  <rect class="active" x="114.757" y="360.000" width="43.102" height="19.000" />
  <rect class="deactivating" x="157.858" y="360.000" width="0.000" height="19.000" />
  <text class="left" x="119.757" y="374.000">system-systemd\x2dfsck.slice</text>
  <rect class="activating" x="114.815" y="380.000" width="0.000" height="19.000" />
  <rect class="active" x="114.815" y="380.000" width="43.043" height="19.000" />
  <rect class="deactivating" x="157.858" y="380.000" width="0.000" height="19.000" />
  <text class="left" x="119.815" y="394.000">system-getty.slice</text>
  <rect class="activating" x="114.912" y="400.000" width="0.937" height="19.000" />
  <rect class="active" x="115.849" y="400.000" width="42.009" height="19.000" />
  <rect class="deactivating" x="157.858" y="400.000" width="0.000" height="19.000" />
  <text class="left" x="119.912" y="414.000">kmod-static-nodes.service (9ms)</text>
  <rect class="activating" x="114.974" y="420.000" width="1.721" height="19.000" />
  <rect class="active" x="116.695" y="420.000" width="41.163" height="19.000" />
  <rect class="deactivating" x="157.858" y="420.000" width="0.000" height="19.000" />
  <text class="left" x="119.974" y="434.000">systemd-udev-trigger.service (17ms)</text>
  <rect class="activating" x="115.025" y="440.000" width="1.552" height="19.000" />
  <rect class="active" x="116.577" y="440.000" width="41.281" height="19.000" />
  <rect class="deactivating" x="157.858" y="440.000" width="0.000" height="19.000" />
  <text class="left" x="120.025" y="454.000">dev-mqueue.mount (15ms)</text>
  <rect class="activating" x="115.431" y="460.000" width="2.865" height="19.000" />
  <rect class="active" x="118.296" y="460.000" width="39.562" height="19.000" />
  <rect class="deactivating" x="157.858" y="460.000" width="0.000" height="19.000" />
  <text class="left" x="120.431" y="474.000">systemd-vconsole-setup.service (28ms)</text>
  <rect class="activating" x="115.633" y="480.000" width="0.892" height="19.000" />
  <rect class="active" x="116.525" y="480.000" width="41.333" height="19.000" />
  <rect class="deactivating" x="157.858" y="480.000" width="0.000" height="19.000" />
  <text class="left" x="120.633" y="494.000">sys-kernel-config.mount (8ms)</text>
  <rect class="activating" x="115.690" y="500.000" width="0.952" height="19.000" />
  <rect class="active" x="116.642" y="500.000" width="41.216" height="19.000" />
  <rect class="deactivating" x="157.858" y="500.000" width="0.000" height="19.000" />
  <text class="left" x="120.690" y="514.000">systemd-sysctl.service (9ms)</text>
  <rect class="activating" x="115.738" y="520.000" width="0.000" height="19.000" />
  <rect class="active" x="115.738" y="520.000" width="42.120" height="19.000" />
  <rect class="deactivating" x="157.858" y="520.000" width="0.000" height="19.000" />
  <text class="left" x="120.738" y="534.000">systemd-journald.service</text>
  <rect class="activating" x="115.787" y="540.000" width="0.000" height="19.000" />
  <rect class="active" x="115.787" y="540.000" width="42.071" height="19.000" />
  <rect class="deactivating" x="157.858" y="540.000" width="0.000" height="19.000" />
  <text class="left" x="120.787" y="554.000">slices.target</text>
  <rect class="activating" x="117.876" y="560.000" width="0.183" height="19.000" />
  <rect class="active" x="118.059" y="560.000" width="39.799" height="19.000" />
  <rect class="deactivating" x="157.858" y="560.000" width="0.000" height="19.000" />
  <text class="left" x="122.876" y="574.000">systemd-remount-fs.service (1ms)</text>
  <rect class="activating" x="118.204" y="580.000" width="0.517" height="19.000" />
  <rect class="active" x="118.722" y="580.000" width="39.136" height="19.000" />
  <rect class="deactivating" x="157.858" y="580.000" width="0.000" height="19.000" />
  <text class="left" x="123.204" y="594.000">systemd-random-seed.service (5ms)</text>
  <rect class="activating" x="118.263" y="600.000" width="0.650" height="19.000" />
  <rect class="active" x="118.913" y="600.000" width="38.945" height="19.000" />
  <rect class="deactivating" x="157.858" y="600.000" width="0.000" height="19.000" />
  <text class="left" x="123.263" y="614.000">systemd-tmpfiles-setup-dev.service (6ms)</text>
  <rect class="activating" x="119.045" y="620.000" width="0.385" height="19.000" />
  <rect class="active" x="119.429" y="620.000" width="38.429" height="19.000" />
  <rect class="deactivating" x="157.858" y="620.000" width="0.000" height="19.000" />
  <text class="left" x="124.045" y="634.000">systemd-udevd.service (3ms)</text>
  <rect class="activating" x="119.047" y="640.000" width="0.000" height="19.000" />
  <rect class="active" x="119.047" y="640.000" width="38.811" height="19.000" />
  <rect class="deactivating" x="157.858" y="640.000" width="0.000" height="19.000" />
  <text class="left" x="124.047" y="654.000">local-fs-pre.target</text>
  <rect class="activating" x="119.243" y="660.000" width="0.142" height="19.000" />
  <rect class="active" x="119.384" y="660.000" width="38.474" height="19.000" />
  <rect class="deactivating" x="157.858" y="660.000" width="0.000" height="19.000" />
  <text class="left" x="124.243" y="674.000">tmp.mount (1ms)</text>
  <rect class="activating" x="121.235" y="680.000" width="0.000" height="19.000" />
  <rect class="active" x="121.235" y="680.000" width="36.623" height="19.000" />
  <rect class="deactivating" x="157.858" y="680.000" width="0.000" height="19.000" />
  <text class="left" x="126.235" y="694.000">sys-module-configfs.device</text>
  <rect class="activating" x="124.951" y="700.000" width="0.000" height="19.000" />
  <rect class="active" x="124.951" y="700.000" width="32.907" height="19.000" />
  <rect class="deactivating" x="157.858" y="700.000" width="0.000" height="19.000" />
  <text class="left" x="129.951" y="714.000">dev-ttyS1.device</text>
  <rect class="activating" x="124.951" y="720.000" width="0.000" height="19.000" />
  <rect class="active" x="124.951" y="720.000" width="32.907" height="19.000" />
  <rect class="deactivating" x="157.858" y="720.000" width="0.000" height="19.000" />
  <text class="left" x="129.951" y="734.000">sys-devices-platform-serial8250-tty-ttyS1.device</text>
  <rect class="activating" x="125.048" y="740.000" width="0.000" height="19.000" />
  <rect class="active" x="125.048" y="740.000" width="32.810" height="19.000" />
  <rect class="deactivating" x="157.858" y="740.000" width="0.000" height="19.000" />
  <text class="left" x="130.048" y="754.000">dev-ttyS0.device</text>
  <rect class="activating" x="125.048" y="760.000" width="0.000" height="19.000" />
  <rect class="active" x="125.048" y="760.000" width="32.810" height="19.000" />
  <rect class="deactivating" x="157.858" y="760.000" width="0.000" height="19.000" />
  <text class="left" x="130.048" y="774.000">sys-devices-pnp0-00:04-tty-ttyS0.device</text>
  <rect class="activating" x="125.079" y="780.000" width="0.000" height="19.000" />
  <rect class="active" x="125.079" y="780.000" width="32.779" height="19.000" />
  <rect class="deactivating" x="157.858" y="780.000" width="0.000" height="19.000" />
  <text class="left" x="130.079" y="794.000">dev-ttyS3.device</text>
  <rect class="activating" x="125.079" y="800.000" width="0.000" height="19.000" />
  <rect class="active" x="125.079" y="800.000" width="32.779" height="19.000" />
  <rect class="deactivating" x="157.858" y="800.000" width="0.000" height="19.000" />
  <text class="left" x="130.079" y="814.000">sys-devices-platform-serial8250-tty-ttyS3.device</text>
  <rect class="activating" x="125.111" y="820.000" width="0.000" height="19.000" />
  <rect class="active" x="125.111" y="820.000" width="32.747" height="19.000" />
  <rect class="deactivating" x="157.858" y="820.000" width="0.000" height="19.000" />
  <text class="left" x="130.111" y="834.000">dev-ttyS2.device</text>
  <rect class="activating" x="125.112" y="840.000" width="0.000" height="19.000" />
  <rect class="active" x="125.112" y="840.000" width="32.747" height="19.000" />
  <rect class="deactivating" x="157.858" y="840.000" width="0.000" height="19.000" />
  <text class="left" x="130.112" y="854.000">sys-devices-platform-serial8250-tty-ttyS2.device</text>
  <rect class="activating" x="129.233" y="860.000" width="0.000" height="19.000" />
  <rect class="active" x="129.233" y="860.000" width="28.625" height="19.000" />
  <rect class="deactivating" x="157.858" y="860.000" width="0.000" height="19.000" />
  <text class="left" x="134.233" y="874.000">sys-devices-pci0000:00-0000:00:01.0-0000:01:00.1-sound-card1.device</text>
  <rect class="activating" x="129.244" y="880.000" width="0.000" height="19.000" />
  <rect class="active" x="129.244" y="880.000" width="28.614" height="19.000" />
  <rect class="deactivating" x="157.858" y="880.000" width="0.000" height="19.000" />
  <text class="left" x="134.244" y="894.000">sound.target</text>
  <rect class="activating" x="129.323" y="900.000" width="0.000" height="19.000" />
  <rect class="active" x="129.323" y="900.000" width="28.536" height="19.000" />
  <rect class="deactivating" x="157.858" y="900.000" width="0.000" height="19.000" />
  <text class="left" x="134.323" y="914.000">sys-devices-pci0000:00-0000:00:1b.0-sound-card0.device</text>
  <rect class="activating" x="129.692" y="920.000" width="0.000" height="19.000" />
  <rect class="active" x="129.692" y="920.000" width="28.166" height="19.000" />
  <rect class="deactivating" x="157.858" y="920.000" width="0.000" height="19.000" />
  <text class="left" x="134.692" y="934.000">dev-disk-by\x2did-wwn\x2d0x5002538da00e18cd.device</text>
  <rect class="activating" x="129.692" y="940.000" width="0.000" height="19.000" />
  <rect class="active" x="129.692" y="940.000" width="28.166" height="19.000" />
  <rect class="deactivating" x="157.858" y="940.000" width="0.000" height="19.000" />
  <text class="left" x="134.692" y="954.000">dev-disk-by\x2did-ata\x2dSamsung_SSD_850_EVO_250GB_S22SNSAG111485T.device</text>
  <rect class="activating" x="129.693" y="960.000" width="0.000" height="19.000" />
  <rect class="active" x="129.693" y="960.000" width="28.166" height="19.000" />
  <rect class="deactivating" x="157.858" y="960.000" width="0.000" height="19.000" />
  <text class="left" x="134.693" y="974.000">dev-sdb.device</text>
  <rect class="activating" x="129.693" y="980.000" width="0.000" height="19.000" />
  <rect class="active" x="129.693" y="980.000" width="28.165" height="19.000" />
  <rect class="deactivating" x="157.858" y="980.000" width="0.000" height="19.000" />
  <text class="left" x="134.693" y="994.000">sys-devices-pci0000:00-0000:00:1c.7-0000:09:00.0-ata9-host8-target8:0:0-8:0:0:0-block-sdb.device</text>
  <rect class="activating" x="130.807" y="1000.000" width="0.000" height="19.000" />
  <rect class="active" x="130.807" y="1000.000" width="27.051" height="19.000" />
  <rect class="deactivating" x="157.858" y="1000.000" width="0.000" height="19.000" />
  <text class="left" x="135.807" y="1014.000">dev-disk-by\x2duuid-1d0b41ad\x2df084\x2d475f\x2dba24\x2dd4ddcd55d103.device</text>
  <rect class="activating" x="130.808" y="1020.000" width="0.000" height="19.000" />
  <rect class="active" x="130.808" y="1020.000" width="27.050" height="19.000" />
  <rect class="deactivating" x="157.858" y="1020.000" width="0.000" height="19.000" />
  <text class="left" x="135.808" y="1034.000">dev-disk-by\x2did-wwn\x2d0x5002538da00e18cd\x2dpart4.device</text>
  <rect class="activating" x="130.808" y="1040.000" width="0.000" height="19.000" />
  <rect class="active" x="130.808" y="1040.000" width="27.050" height="19.000" />
  <rect class="deactivating" x="157.858" y="1040.000" width="0.000" height="19.000" />
  <text class="left" x="135.808" y="1054.000">dev-disk-by\x2did-ata\x2dSamsung_SSD_850_EVO_250GB_S22SNSAG111485T\x2dpart4.device</text>
  <rect class="activating" x="130.808" y="1060.000" width="0.000" height="19.000" />
  <rect class="active" x="130.808" y="1060.000" width="27.050" height="19.000" />
  <rect class="deactivating" x="157.858" y="1060.000" width="0.000" height="19.000" />
  <text class="left" x="135.808" y="1074.000">dev-sdb4.device</text>
  <rect class="activating" x="130.857" y="1080.000" width="0.000" height="19.000" />
  <rect class="active" x="130.857" y="1080.000" width="27.001" height="19.000" />
  <rect class="deactivating" x="157.858" y="1080.000" width="0.000" height="19.000" />
  <text class="left" x="135.857" y="1094.000">sys-devices-pci0000:00-0000:00:1c.7-0000:09:00.0-ata9-host8-target8:0:0-8:0:0:0-block-sdb-sdb4.device</text>
  <rect class="activating" x="130.888" y="1100.000" width="0.000" height="19.000" />
  <rect class="active" x="130.888" y="1100.000" width="26.970" height="19.000" />
  <rect class="deactivating" x="157.858" y="1100.000" width="0.000" height="19.000" />
  <text class="left" x="135.888" y="1114.000">dev-disk-by\x2duuid-a97970bb\x2d4431\x2d4e2b\x2da39f\x2df1c950f75680.device</text>
  <rect class="activating" x="130.888" y="1120.000" width="0.000" height="19.000" />
  <rect class="active" x="130.888" y="1120.000" width="26.970" height="19.000" />
  <rect class="deactivating" x="157.858" y="1120.000" width="0.000" height="19.000" />
  <text class="left" x="135.888" y="1134.000">dev-disk-by\x2did-wwn\x2d0x5002538da00e18cd\x2dpart2.device</text>
  <rect class="activating" x="130.888" y="1140.000" width="0.000" height="19.000" />
  <rect class="active" x="130.888" y="1140.000" width="26.970" height="19.000" />
  <rect class="deactivating" x="157.858" y="1140.000" width="0.000" height="19.000" />
  <text class="left" x="135.888" y="1154.000">dev-disk-by\x2did-ata\x2dSamsung_SSD_850_EVO_250GB_S22SNSAG111485T\x2dpart2.device</text>
  <rect class="activating" x="130.889" y="1160.000" width="0.000" height="19.000" />
  <rect class="active" x="130.889" y="1160.000" width="26.970" height="19.000" />
  <rect class="deactivating" x="157.858" y="1160.000" width="0.000" height="19.000" />
  <text class="left" x="135.889" y="1174.000">dev-sdb2.device</text>
  <rect class="activating" x="130.889" y="1180.000" width="0.000" height="19.000" />
  <rect class="active" x="130.889" y="1180.000" width="26.969" height="19.000" />
  <rect class="deactivating" x="157.858" y="1180.000" width="0.000" height="19.000" />
  <text class="left" x="135.889" y="1194.000">sys-devices-pci0000:00-0000:00:1c.7-0000:09:00.0-ata9-host8-target8:0:0-8:0:0:0-block-sdb-sdb2.device</text>
  <rect class="activating" x="130.901" y="1200.000" width="0.000" height="19.000" />
  <rect class="active" x="130.901" y="1200.000" width="26.957" height="19.000" />
  <rect class="deactivating" x="157.858" y="1200.000" width="0.000" height="19.000" />
  <text class="left" x="135.901" y="1214.000">sys-subsystem-net-devices-eno1.device</text>
  <rect class="activating" x="130.901" y="1220.000" width="0.000" height="19.000" />
  <rect class="active" x="130.901" y="1220.000" width="26.957" height="19.000" />
  <rect class="deactivating" x="157.858" y="1220.000" width="0.000" height="19.000" />
  <text class="left" x="135.901" y="1234.000">sys-devices-pci0000:00-0000:00:19.0-net-eno1.device</text>
  <rect class="activating" x="130.927" y="1240.000" width="0.000" height="19.000" />
  <rect class="active" x="130.927" y="1240.000" width="26.931" height="19.000" />
  <rect class="deactivating" x="157.858" y="1240.000" width="0.000" height="19.000" />
  <text class="left" x="135.927" y="1254.000">dev-disk-by\x2duuid-b91802e6\x2daf54\x2d494a\x2d9175\x2dccaf29afd12f.device</text>
  <rect class="activating" x="130.927" y="1260.000" width="0.000" height="19.000" />
  <rect class="active" x="130.927" y="1260.000" width="26.931" height="19.000" />
  <rect class="deactivating" x="157.858" y="1260.000" width="0.000" height="19.000" />
  <text class="left" x="135.927" y="1274.000">dev-disk-by\x2did-wwn\x2d0x5002538da00e18cd\x2dpart3.device</text>
  <rect class="activating" x="130.927" y="1280.000" width="0.000" height="19.000" />
  <rect class="active" x="130.927" y="1280.000" width="26.931" height="19.000" />
  <rect class="deactivating" x="157.858" y="1280.000" width="0.000" height="19.000" />
  <text class="left" x="135.927" y="1294.000">dev-disk-by\x2did-ata\x2dSamsung_SSD_850_EVO_250GB_S22SNSAG111485T\x2dpart3.device</text>
  <rect class="activating" x="130.928" y="1300.000" width="0.000" height="19.000" />
  <rect class="active" x="130.928" y="1300.000" width="26.931" height="19.000" />
  <rect class="deactivating" x="157.858" y="1300.000" width="0.000" height="19.000" />
  <text class="left" x="135.928" y="1314.000">dev-sdb3.device</text>
  <rect class="activating" x="130.970" y="1320.000" width="0.000" height="19.000" />
  <rect class="active" x="130.970" y="1320.000" width="26.889" height="19.000" />
  <rect class="deactivating" x="157.858" y="1320.000" width="0.000" height="19.000" />
  <text class="left" x="135.970" y="1334.000">sys-devices-pci0000:00-0000:00:1c.7-0000:09:00.0-ata9-host8-target8:0:0-8:0:0:0-block-sdb-sdb3.device</text>
  <rect class="activating" x="130.996" y="1340.000" width="0.000" height="19.000" />
  <rect class="active" x="130.996" y="1340.000" width="26.862" height="19.000" />
  <rect class="deactivating" x="157.858" y="1340.000" width="0.000" height="19.000" />
  <text class="left" x="135.996" y="1354.000">dev-disk-by\x2duuid-7c725cbd\x2ddc62\x2d406c\x2d897b\x2d7e493655abb9.device</text>
  <rect class="activating" x="130.996" y="1360.000" width="0.000" height="19.000" />
  <rect class="active" x="130.996" y="1360.000" width="26.862" height="19.000" />
  <rect class="deactivating" x="157.858" y="1360.000" width="0.000" height="19.000" />
  <text class="left" x="135.996" y="1374.000">dev-disk-by\x2did-wwn\x2d0x5002538da00e18cd\x2dpart1.device</text>
  <rect class="activating" x="130.996" y="1380.000" width="0.000" height="19.000" />
  <rect class="active" x="130.996" y="1380.000" width="26.862" height="19.000" />
  <rect class="deactivating" x="157.858" y="1380.000" width="0.000" height="19.000" />
  <text class="left" x="135.996" y="1394.000">dev-disk-by\x2did-ata\x2dSamsung_SSD_850_EVO_250GB_S22SNSAG111485T\x2dpart1.device</text>
  <rect class="activating" x="130.996" y="1400.000" width="0.000" height="19.000" />
  <rect class="active" x="130.996" y="1400.000" width="26.862" height="19.000" />
  <rect class="deactivating" x="157.858" y="1400.000" width="0.000" height="19.000" />
  <text class="left" x="135.996" y="1414.000">dev-sdb1.device</text>
  <rect class="activating" x="131.042" y="1420.000" width="0.000" height="19.000" />
  <rect class="active" x="131.042" y="1420.000" width="26.816" height="19.000" />
  <rect class="deactivating" x="157.858" y="1420.000" width="0.000" height="19.000" />
  <text class="left" x="136.042" y="1434.000">sys-devices-pci0000:00-0000:00:1c.7-0000:09:00.0-ata9-host8-target8:0:0-8:0:0:0-block-sdb-sdb1.device</text>
  <rect class="activating" x="131.095" y="1440.000" width="0.552" height="19.000" />
  <rect class="active" x="131.647" y="1440.000" width="26.211" height="19.000" />
  <rect class="deactivating" x="157.858" y="1440.000" width="0.000" height="19.000" />
  <text class="left" x="136.095" y="1454.000">systemd-fsck@dev-sdb1.service (5ms)</text>
  <rect class="activating" x="131.144" y="1460.000" width="0.797" height="19.000" />
  <rect class="active" x="131.941" y="1460.000" width="25.917" height="19.000" />
  <rect class="deactivating" x="157.858" y="1460.000" width="0.000" height="19.000" />
  <text class="left" x="136.144" y="1474.000">systemd-fsck@dev-sdb3.service (7ms)</text>
  <rect class="activating" x="131.918" y="1480.000" width="0.756" height="19.000" />
  <rect class="active" x="132.674" y="1480.000" width="25.184" height="19.000" />
  <rect class="deactivating" x="157.858" y="1480.000" width="0.000" height="19.000" />
  <text class="left" x="136.918" y="1494.000">boot.mount (7ms)</text>
  <rect class="activating" x="132.434" y="1500.000" width="0.706" height="19.000" />
  <rect class="active" x="133.140" y="1500.000" width="24.718" height="19.000" />
  <rect class="deactivating" x="157.858" y="1500.000" width="0.000" height="19.000" />
  <text class="left" x="137.434" y="1514.000">home.mount (7ms)</text>
  <rect class="activating" x="133.234" y="1520.000" width="0.000" height="19.000" />
  <rect class="active" x="133.234" y="1520.000" width="24.624" height="19.000" />
  <rect class="deactivating" x="157.858" y="1520.000" width="0.000" height="19.000" />
  <text class="left" x="138.234" y="1534.000">local-fs.target</text>
  <rect class="activating" x="133.324" y="1540.000" width="0.455" height="19.000" />
  <rect class="active" x="133.779" y="1540.000" width="0.000" height="19.000" />
  <rect class="deactivating" x="133.779" y="1540.000" width="0.000" height="19.000" />
  <text class="left" x="138.324" y="1554.000">systemd-journal-flush.service (4ms)</text>
  <rect class="activating" x="133.380" y="1560.000" width="0.592" height="19.000" />
  <rect class="active" x="133.971" y="1560.000" width="23.887" height="19.000" />
  <rect class="deactivating" x="157.858" y="1560.000" width="0.000" height="19.000" />
  <text class="left" x="138.380" y="1574.000">systemd-tmpfiles-setup.service (5ms)</text>
  <rect class="activating" x="134.102" y="1580.000" width="0.265" height="19.000" />
  <rect class="active" x="134.367" y="1580.000" width="23.491" height="19.000" />
  <rect class="deactivating" x="157.858" y="1580.000" width="0.000" height="19.000" />
  <text class="left" x="139.102" y="1594.000">systemd-update-utmp.service (2ms)</text>
  <rect class="activating" x="134.446" y="1600.000" width="0.000" height="19.000" />
  <rect class="active" x="134.446" y="1600.000" width="23.412" height="19.000" />
  <rect class="deactivating" x="157.858" y="1600.000" width="0.000" height="19.000" />
  <text class="left" x="139.446" y="1614.000">sysinit.target</text>
  <rect class="activating" x="134.492" y="1620.000" width="0.000" height="19.000" />
  <rect class="active" x="134.492" y="1620.000" width="23.366" height="19.000" />
  <rect class="deactivating" x="157.858" y="1620.000" width="0.000" height="19.000" />
  <text class="left" x="139.492" y="1634.000">acpid.socket</text>
  <rect class="activating" x="134.535" y="1640.000" width="0.000" height="19.000" />
  <rect class="active" x="134.535" y="1640.000" width="23.323" height="19.000" />
  <rect class="deactivating" x="157.858" y="1640.000" width="0.000" height="19.000" />
  <text class="left" x="139.535" y="1654.000">dbus.socket</text>
  <rect class="activating" x="134.578" y="1660.000" width="0.000" height="19.000" />
  <rect class="active" x="134.578" y="1660.000" width="23.280" height="19.000" />
  <rect class="deactivating" x="157.858" y="1660.000" width="0.000" height="19.000" />
  <text class="left" x="139.578" y="1674.000">sockets.target</text>
  <rect class="activating" x="134.622" y="1680.000" width="0.000" height="19.000" />
  <rect class="active" x="134.622" y="1680.000" width="23.236" height="19.000" />
  <rect class="deactivating" x="157.858" y="1680.000" width="0.000" height="19.000" />
  <text class="left" x="139.622" y="1694.000">systemd-tmpfiles-clean.timer</text>
  <rect class="activating" x="134.623" y="1700.000" width="0.000" height="19.000" />
  <rect class="active" x="134.623" y="1700.000" width="23.235" height="19.000" />
  <rect class="deactivating" x="157.858" y="1700.000" width="0.000" height="19.000" />
  <text class="left" x="139.623" y="1714.000">timers.target</text>
  <rect class="activating" x="134.671" y="1720.000" width="0.000" height="19.000" />
  <rect class="active" x="134.671" y="1720.000" width="23.188" height="19.000" />
  <rect class="deactivating" x="157.858" y="1720.000" width="0.000" height="19.000" />
  <text class="left" x="139.671" y="1734.000">basic.target</text>
  <rect class="activating" x="134.766" y="1740.000" width="22.489" height="19.000" />
  <rect class="active" x="157.255" y="1740.000" width="0.603" height="19.000" />
  <rect class="deactivating" x="157.858" y="1740.000" width="0.000" height="19.000" />
  <text class="left" x="139.766" y="1754.000">NetworkManager.service (224ms)</text>
  <rect class="activating" x="134.819" y="1760.000" width="3.694" height="19.000" />
  <rect class="active" x="138.512" y="1760.000" width="19.346" height="19.000" />
  <rect class="deactivating" x="157.858" y="1760.000" width="0.000" height="19.000" />
  <text class="left" x="139.819" y="1774.000">vixie-cron.service (36ms)</text>
  <rect class="activating" x="134.870" y="1780.000" width="3.892" height="19.000" />
  <rect class="active" x="138.761" y="1780.000" width="19.097" height="19.000" />
  <rect class="deactivating" x="157.858" y="1780.000" width="0.000" height="19.000" />
  <text class="left" x="139.870" y="1794.000">systemd-logind.service (38ms)</text>
  <rect class="activating" x="134.918" y="1800.000" width="0.000" height="19.000" />
  <rect class="active" x="134.918" y="1800.000" width="22.940" height="19.000" />
  <rect class="deactivating" x="157.858" y="1800.000" width="0.000" height="19.000" />
  <text class="left" x="139.918" y="1814.000">acpid.service</text>
  <rect class="activating" x="135.007" y="1820.000" width="0.000" height="19.000" />
  <rect class="active" x="135.007" y="1820.000" width="22.851" height="19.000" />
  <rect class="deactivating" x="157.858" y="1820.000" width="0.000" height="19.000" />
  <text class="left" x="140.007" y="1834.000">dbus.service</text>
  <rect class="activating" x="138.460" y="1840.000" width="0.105" height="19.000" />
  <rect class="active" x="138.566" y="1840.000" width="19.293" height="19.000" />
  <rect class="deactivating" x="157.858" y="1840.000" width="0.000" height="19.000" />
  <text class="left" x="143.460" y="1854.000">systemd-user-sessions.service (1ms)</text>
  <rect class="activating" x="138.637" y="1860.000" width="0.000" height="19.000" />
  <rect class="active" x="138.637" y="1860.000" width="19.221" height="19.000" />
  <rect class="deactivating" x="157.858" y="1860.000" width="0.000" height="19.000" />
  <text class="left" x="143.637" y="1874.000">dev-disk-by\x2did-wwn\x2d0x5000c5004a3c1ace.device</text>
  <rect class="activating" x="138.637" y="1880.000" width="0.000" height="19.000" />
  <rect class="active" x="138.637" y="1880.000" width="19.221" height="19.000" />
  <rect class="deactivating" x="157.858" y="1880.000" width="0.000" height="19.000" />
  <text class="left" x="143.637" y="1894.000">dev-disk-by\x2did-ata\x2dST2000DM001\x2d9YN164_S240433N.device</text>
  <rect class="activating" x="138.637" y="1900.000" width="0.000" height="19.000" />
  <rect class="active" x="138.637" y="1900.000" width="19.221" height="19.000" />
  <rect class="deactivating" x="157.858" y="1900.000" width="0.000" height="19.000" />
  <text class="left" x="143.637" y="1914.000">dev-sda.device</text>
  <rect class="activating" x="138.637" y="1920.000" width="0.000" height="19.000" />
  <rect class="active" x="138.637" y="1920.000" width="19.221" height="19.000" />
  <rect class="deactivating" x="157.858" y="1920.000" width="0.000" height="19.000" />
  <text class="left" x="143.637" y="1934.000">sys-devices-pci0000:00-0000:00:1f.2-ata3-host2-target2:0:0-2:0:0:0-block-sda.device</text>
  <rect class="activating" x="138.915" y="1940.000" width="0.000" height="19.000" />
  <rect class="active" x="138.915" y="1940.000" width="18.943" height="19.000" />
  <rect class="deactivating" x="157.858" y="1940.000" width="0.000" height="19.000" />
  <text class="left" x="143.915" y="1954.000">getty@tty1.service</text>
  <rect class="activating" x="138.960" y="1960.000" width="0.000" height="19.000" />
  <rect class="active" x="138.960" y="1960.000" width="18.898" height="19.000" />
  <rect class="deactivating" x="157.858" y="1960.000" width="0.000" height="19.000" />
  <text class="left" x="143.960" y="1974.000">getty.target</text>
  <rect class="activating" x="139.047" y="1980.000" width="3.279" height="19.000" />
  <rect class="active" x="142.326" y="1980.000" width="15.532" height="19.000" />
  <rect class="deactivating" x="157.858" y="1980.000" width="0.000" height="19.000" />
  <text class="left" x="144.047" y="1994.000">lightdm.service (32ms)</text>
  <rect class="activating" x="147.362" y="2000.000" width="3.214" height="19.000" />
  <rect class="active" x="150.576" y="2000.000" width="7.283" height="19.000" />
  <rect class="deactivating" x="157.858" y="2000.000" width="0.000" height="19.000" />
  <text class="left" x="152.362" y="2014.000">polkit.service (32ms)</text>
  <rect class="activating" x="156.573" y="2020.000" width="0.000" height="19.000" />
  <rect class="active" x="156.573" y="2020.000" width="1.285" height="19.000" />
  <rect class="deactivating" x="157.858" y="2020.000" width="0.000" height="19.000" />
  <text class="left" x="161.573" y="2034.000">dev-disk-by\x2duuid-34aa463c\x2dddc7\x2d42b3\x2d9f4e\x2d6018f9540422.device</text>
  <rect class="activating" x="156.573" y="2040.000" width="0.000" height="19.000" />
  <rect class="active" x="156.573" y="2040.000" width="1.285" height="19.000" />
  <rect class="deactivating" x="157.858" y="2040.000" width="0.000" height="19.000" />
  <text class="left" x="161.573" y="2054.000">dev-disk-by\x2dlabel-BOOT.device</text>
  <rect class="activating" x="156.574" y="2060.000" width="0.000" height="19.000" />
  <rect class="active" x="156.574" y="2060.000" width="1.284" height="19.000" />
  <rect class="deactivating" x="157.858" y="2060.000" width="0.000" height="19.000" />
  <text class="left" x="161.574" y="2074.000">dev-disk-by\x2did-wwn\x2d0x5000c5004a3c1ace\x2dpart5.device</text>
  <rect class="activating" x="156.574" y="2080.000" width="0.000" height="19.000" />
  <rect class="active" x="156.574" y="2080.000" width="1.284" height="19.000" />
  <rect class="deactivating" x="157.858" y="2080.000" width="0.000" height="19.000" />
  <text class="left" x="161.574" y="2094.000">dev-disk-by\x2did-ata\x2dST2000DM001\x2d9YN164_S240433N\x2dpart5.device</text>
  <rect class="activating" x="156.574" y="2100.000" width="0.000" height="19.000" />
  <rect class="active" x="156.574" y="2100.000" width="1.284" height="19.000" />
  <rect class="deactivating" x="157.858" y="2100.000" width="0.000" height="19.000" />
  <text class="left" x="161.574" y="2114.000">dev-sda5.device</text>
  <rect class="activating" x="156.574" y="2120.000" width="0.000" height="19.000" />
  <rect class="active" x="156.574" y="2120.000" width="1.284" height="19.000" />
  <rect class="deactivating" x="157.858" y="2120.000" width="0.000" height="19.000" />
  <text class="left" x="161.574" y="2134.000">sys-devices-pci0000:00-0000:00:1f.2-ata3-host2-target2:0:0-2:0:0:0-block-sda-sda5.device</text>
  <rect class="activating" x="156.610" y="2140.000" width="0.000" height="19.000" />
  <rect class="active" x="156.610" y="2140.000" width="1.248" height="19.000" />
  <rect class="deactivating" x="157.858" y="2140.000" width="0.000" height="19.000" />
  <text class="left" x="161.610" y="2154.000">dev-disk-by\x2did-wwn\x2d0x5000c5004a3c1ace\x2dpart4.device</text>
  <rect class="activating" x="156.610" y="2160.000" width="0.000" height="19.000" />
  <rect class="active" x="156.610" y="2160.000" width="1.248" height="19.000" />
  <rect class="deactivating" x="157.858" y="2160.000" width="0.000" height="19.000" />
  <text class="left" x="161.610" y="2174.000">dev-disk-by\x2did-ata\x2dST2000DM001\x2d9YN164_S240433N\x2dpart4.device</text>
  <rect class="activating" x="156.610" y="2180.000" width="0.000" height="19.000" />
  <rect class="active" x="156.610" y="2180.000" width="1.248" height="19.000" />
  <rect class="deactivating" x="157.858" y="2180.000" width="0.000" height="19.000" />
  <text class="left" x="161.610" y="2194.000">dev-sda4.device</text>
  <rect class="activating" x="156.611" y="2200.000" width="0.000" height="19.000" />
  <rect class="active" x="156.611" y="2200.000" width="1.248" height="19.000" />
  <rect class="deactivating" x="157.858" y="2200.000" width="0.000" height="19.000" />
  <text class="left" x="161.611" y="2214.000">sys-devices-pci0000:00-0000:00:1f.2-ata3-host2-target2:0:0-2:0:0:0-block-sda-sda4.device</text>
  <rect class="activating" x="156.662" y="2220.000" width="0.000" height="19.000" />
  <rect class="active" x="156.662" y="2220.000" width="1.196" height="19.000" />
  <rect class="deactivating" x="157.858" y="2220.000" width="0.000" height="19.000" />
  <text class="left" x="161.662" y="2234.000">dev-disk-by\x2duuid-11F2F0AD7F0E7A9C.device</text>
  <rect class="activating" x="156.662" y="2240.000" width="0.000" height="19.000" />
  <rect class="active" x="156.662" y="2240.000" width="1.196" height="19.000" />
  <rect class="deactivating" x="157.858" y="2240.000" width="0.000" height="19.000" />
  <text class="left" x="161.662" y="2254.000">dev-disk-by\x2dlabel-C.device</text>
  <rect class="activating" x="156.662" y="2260.000" width="0.000" height="19.000" />
  <rect class="active" x="156.662" y="2260.000" width="1.196" height="19.000" />
  <rect class="deactivating" x="157.858" y="2260.000" width="0.000" height="19.000" />
  <text class="left" x="161.662" y="2274.000">dev-disk-by\x2did-wwn\x2d0x5000c5004a3c1ace\x2dpart1.device</text>
  <rect class="activating" x="156.662" y="2280.000" width="0.000" height="19.000" />
  <rect class="active" x="156.662" y="2280.000" width="1.196" height="19.000" />
  <rect class="deactivating" x="157.858" y="2280.000" width="0.000" height="19.000" />
  <text class="left" x="161.662" y="2294.000">dev-disk-by\x2did-ata\x2dST2000DM001\x2d9YN164_S240433N\x2dpart1.device</text>
  <rect class="activating" x="156.662" y="2300.000" width="0.000" height="19.000" />
  <rect class="active" x="156.662" y="2300.000" width="1.196" height="19.000" />
  <rect class="deactivating" x="157.858" y="2300.000" width="0.000" height="19.000" />
  <text class="left" x="161.662" y="2314.000">dev-sda1.device</text>
  <rect class="activating" x="156.663" y="2320.000" width="0.000" height="19.000" />
  <rect class="active" x="156.663" y="2320.000" width="1.196" height="19.000" />
  <rect class="deactivating" x="157.858" y="2320.000" width="0.000" height="19.000" />
  <text class="left" x="161.663" y="2334.000">sys-devices-pci0000:00-0000:00:1f.2-ata3-host2-target2:0:0-2:0:0:0-block-sda-sda1.device</text>
  <rect class="activating" x="157.270" y="2340.000" width="0.000" height="19.000" />
  <rect class="active" x="157.270" y="2340.000" width="0.588" height="19.000" />
  <rect class="deactivating" x="157.858" y="2340.000" width="0.000" height="19.000" />
  <text class="left" x="162.270" y="2354.000">network.target</text>
  <rect class="activating" x="157.305" y="2360.000" width="0.380" height="19.000" />
  <rect class="active" x="157.685" y="2360.000" width="0.173" height="19.000" />
  <rect class="deactivating" x="157.858" y="2360.000" width="0.000" height="19.000" />
  <text class="left" x="162.305" y="2374.000">sshd.service (3ms)</text>
  <rect class="activating" x="157.852" y="2380.000" width="0.000" height="19.000" />
  <rect class="active" x="157.852" y="2380.000" width="0.006" height="19.000" />
  <rect class="deactivating" x="157.858" y="2380.000" width="0.000" height="19.000" />
  <text class="left" x="162.852" y="2394.000">multi-user.target</text>
  <rect class="activating" x="157.856" y="2400.000" width="0.000" height="19.000" />
  <rect class="active" x="157.856" y="2400.000" width="0.003" height="19.000" />
  <rect class="deactivating" x="157.858" y="2400.000" width="0.000" height="19.000" />
  <text class="left" x="162.856" y="2414.000">graphical.target</text>
</g>
<g transform="translate(20,100)">
  <rect class="activating" x="0.000" y="2440.000" width="30.000" height="19.000" />
  <text class="left" x="45.000" y="2454.000">Activating</text>
  <rect class="active" x="0.000" y="2460.000" width="30.000" height="19.000" />
  <text class="left" x="45.000" y="2474.000">Active</text>
  <rect class="deactivating" x="0.000" y="2480.000" width="30.000" height="19.000" />
  <text class="left" x="45.000" y="2494.000">Deactivating</text>
  <rect class="security" x="0.000" y="2500.000" width="30.000" height="19.000" />
  <text class="left" x="45.000" y="2514.000">Setting up security module</text>
  <rect class="generators" x="0.000" y="2520.000" width="30.000" height="19.000" />
  <text class="left" x="45.000" y="2534.000">Generators</text>
  <rect class="unitsload" x="0.000" y="2540.000" width="30.000" height="19.000" />
  <text class="left" x="45.000" y="2554.000">Loading unit files</text>
</g>

</svg>
